<?xml version="1.0" encoding="UTF-8"?>
<svg xmlns="http://www.w3.org/2000/svg" xmlns:xlink="http://www.w3.org/1999/xlink" width="500pt" height="500pt" viewBox="0 0 500 500" version="1.1">
<defs>
<radialGradient id="radial0" gradientUnits="userSpaceOnUse" cx="250.340439" cy="1008.022217" fx="250.340439" fy="1008.022217" r="26.420895" gradientTransform="matrix(8.095757,-0.0940843,0.111205,9.711199,-1887.952148,-9512.992188)">
<stop offset="0" style="stop-color:rgb(49.411765%,81.176472%,95.294118%);stop-opacity:0.980392;"/>
<stop offset="0.668846" style="stop-color:rgb(52.941179%,81.568629%,93.725491%);stop-opacity:0.988235;"/>
<stop offset="1" style="stop-color:rgb(4.705882%,51.764709%,80.784315%);stop-opacity:1;"/>
</radialGradient>
</defs>
<g id="surface1">
<path style="fill-rule:nonzero;fill:url(#radial0);stroke-width:18.991699;stroke-linecap:butt;stroke-linejoin:miter;stroke:rgb(0%,0%,0%);stroke-opacity:1;stroke-miterlimit:4;" d="M 9.49605 248.230514 C 9.499956 382.039132 117.183569 490.511809 250.007813 490.503996 C 382.828149 490.50009 490.500044 382.03132 490.50395 248.230514 C 489.652388 128.898461 392.015651 11.035158 247.828125 9.507814 C 104.402317 7.992189 11.226519 135.476587 9.49605 248.230514 Z M 9.49605 248.230514 " transform="matrix(1,0,0,1,0.0000457764,0)"/>
<path style=" stroke:none;fill-rule:evenodd;fill:rgb(0%,0%,0%);fill-opacity:1;" d="M 137.792969 217.324219 C 139.164062 145.410156 161.761719 94.042969 179.570312 94.042969 C 201.484375 94.042969 232.988281 124.179688 254.90625 124.179688 C 268.601562 124.179688 299.421875 102.265625 323.390625 102.265625 C 335.71875 102.265625 355.519531 141.308594 356.203125 207.058594 C 269.78125 212.011719 212.359375 245.675781 137.792969 217.324219 Z M 137.792969 217.324219 "/>
<path style=" stroke:none;fill-rule:evenodd;fill:rgb(0%,0%,0%);fill-opacity:1;" d="M 222.820312 291.453125 C 236.101562 283.320312 257.789062 283.859375 269.546875 290.527344 L 269.738281 300.210938 C 257.371094 293.433594 235.707031 293.863281 223.015625 301.136719 Z M 222.820312 291.453125 "/>
<path style="fill:none;stroke-width:18.9244;stroke-linecap:round;stroke-linejoin:round;stroke:rgb(0%,0%,0%);stroke-opacity:1;stroke-miterlimit:4;" d="M 288.070319 379.636788 C 288.070319 379.636788 284.08985 394.58601 250.75 395.761791 C 213.7539 397.496167 209.152336 383.296945 209.152336 383.296945 " transform="matrix(1,0,0,1,0.0000457764,0)"/>
<path style=" stroke:none;fill-rule:evenodd;fill:rgb(0%,0%,0%);fill-opacity:1;" d="M 72.546875 226.773438 C 73.203125 200.5625 181.5625 246.699219 215.027344 242.34375 C 267.1875 238.574219 410.640625 194.011719 417.851562 227.429688 C 423.089844 256.914062 377.5625 233.753906 292.847656 246.644531 C 292.847656 246.644531 72.546875 270.675781 72.546875 226.773438 Z M 72.546875 226.773438 "/>
<path style=" stroke:none;fill-rule:evenodd;fill:rgb(0%,0%,0%);fill-opacity:1;" d="M 132.65625 293.207031 C 143.480469 277.472656 192.5625 272.628906 228.191406 288.234375 C 228.191406 288.234375 233.539062 304.136719 226.804688 314.304688 C 221.265625 331.085938 170.242188 348.257812 140.652344 329.03125 C 129.417969 319.679688 127.792969 307.09375 132.65625 293.207031 Z M 132.65625 293.207031 "/>
<path style=" stroke:none;fill-rule:evenodd;fill:rgb(0%,0%,0%);fill-opacity:1;" d="M 359.09375 282.261719 C 346.398438 268 297.09375 269.289062 263.679688 289.203125 C 263.679688 289.203125 260.351562 305.644531 268.296875 314.898438 C 275.878906 330.859375 328.640625 341.558594 355.613281 318.804688 C 365.597656 308.128906 365.644531 295.4375 359.09375 282.261719 Z M 359.09375 282.261719 "/>
</g>
</svg>
